<svg xmlns="http://www.w3.org/2000/svg" viewBox="0 0 800 450" fill="none">
  <rect width="800" height="450" fill="#1a1d24"/>
  <rect x="20" y="20" width="760" height="60" rx="8" fill="#252830"/>
  <circle cx="50" cy="50" r="15" fill="#10b981"/>
  <rect x="80" y="40" width="120" height="20" rx="4" fill="#374151"/>
  <rect x="640" y="35" width="120" height="30" rx="6" fill="#10b981"/>
  <rect x="20" y="100" width="180" height="330" rx="8" fill="#252830"/>
  <rect x="40" y="120" width="140" height="20" rx="4" fill="#374151"/>
  <rect x="40" y="160" width="120" height="15" rx="3" fill="#4b5563"/>
  <rect x="40" y="190" width="100" height="15" rx="3" fill="#4b5563"/>
  <rect x="40" y="220" width="130" height="15" rx="3" fill="#4b5563"/>
  <rect x="220" y="100" width="560" height="160" rx="8" fill="#252830"/>
  <text x="500" y="180" font-family="system-ui" font-size="24" fill="#9ca3af" text-anchor="middle">Dashboard Overview</text>
  <rect x="220" y="280" width="270" height="150" rx="8" fill="#252830"/>
  <rect x="510" y="280" width="270" height="150" rx="8" fill="#252830"/>
  <rect x="240" y="300" width="100" height="20" rx="4" fill="#10b981"/>
  <rect x="530" y="300" width="100" height="20" rx="4" fill="#f59e0b"/>
  <text x="400" y="420" font-family="system-ui" font-size="14" fill="#6b7280" text-anchor="middle">WMS - Warehouse Management System</text>
</svg>
