<svg xmlns="http://www.w3.org/2000/svg" viewBox="0 0 800 450" fill="none">
  <rect width="800" height="450" fill="#1a1d24"/>
  <rect x="20" y="20" width="760" height="60" rx="8" fill="#252830"/>
  <text x="50" y="55" font-family="system-ui" font-size="18" fill="#fff">Inventory</text>
  <rect x="20" y="100" width="760" height="50" rx="4" fill="#252830"/>
  <rect x="40" y="115" width="80" height="20" rx="3" fill="#374151"/>
  <rect x="140" y="115" width="100" height="20" rx="3" fill="#374151"/>
  <rect x="260" y="115" width="80" height="20" rx="3" fill="#374151"/>
  <rect x="360" y="115" width="60" height="20" rx="3" fill="#374151"/>
  <rect x="20" y="160" width="760" height="40" rx="4" fill="#1f2937"/>
  <rect x="20" y="210" width="760" height="40" rx="4" fill="#252830"/>
  <rect x="20" y="260" width="760" height="40" rx="4" fill="#1f2937"/>
  <rect x="20" y="310" width="760" height="40" rx="4" fill="#252830"/>
  <rect x="20" y="360" width="760" height="40" rx="4" fill="#1f2937"/>
  <circle cx="50" cy="180" r="8" fill="#10b981"/>
  <circle cx="50" cy="230" r="8" fill="#10b981"/>
  <circle cx="50" cy="280" r="8" fill="#f59e0b"/>
  <circle cx="50" cy="330" r="8" fill="#10b981"/>
  <circle cx="50" cy="380" r="8" fill="#ef4444"/>
  <text x="400" y="430" font-family="system-ui" font-size="14" fill="#6b7280" text-anchor="middle">WMS - Inventory Management</text>
</svg>
