<svg xmlns="http://www.w3.org/2000/svg" viewBox="0 0 800 450" fill="none">
  <rect width="800" height="450" fill="#1a1d24"/>
  <rect x="20" y="20" width="760" height="60" rx="8" fill="#252830"/>
  <text x="50" y="55" font-family="system-ui" font-size="18" fill="#fff">Reports</text>
  <rect x="20" y="100" width="370" height="200" rx="8" fill="#252830"/>
  <rect x="410" y="100" width="370" height="200" rx="8" fill="#252830"/>
  <rect x="40" y="120" width="100" height="16" rx="3" fill="#374151"/>
  <rect x="430" y="120" width="100" height="16" rx="3" fill="#374151"/>
  <path d="M60 280 L100 220 L140 250 L180 180 L220 200 L260 150 L300 170 L340 140" stroke="#10b981" stroke-width="3" fill="none"/>
  <rect x="450" y="160" width="40" height="100" rx="2" fill="#10b981"/>
  <rect x="510" y="180" width="40" height="80" rx="2" fill="#3b82f6"/>
  <rect x="570" y="200" width="40" height="60" rx="2" fill="#f59e0b"/>
  <rect x="630" y="150" width="40" height="110" rx="2" fill="#10b981"/>
  <rect x="690" y="170" width="40" height="90" rx="2" fill="#3b82f6"/>
  <rect x="20" y="320" width="760" height="110" rx="8" fill="#252830"/>
  <rect x="40" y="340" width="150" height="20" rx="4" fill="#374151"/>
  <rect x="40" y="380" width="700" height="30" rx="4" fill="#1f2937"/>
  <text x="400" y="430" font-family="system-ui" font-size="14" fill="#6b7280" text-anchor="middle">WMS - Analytics Reports</text>
</svg>
