<svg xmlns="http://www.w3.org/2000/svg" viewBox="0 0 800 450" fill="none">
    <rect width="800" height="450" fill="#1a1d24" />
    <rect x="20" y="20" width="760" height="50" rx="8" fill="#252830" />
    <text x="50" y="52" font-family="system-ui" font-size="18" fill="#fff">Dashboard</text>
    <rect x="20" y="90" width="180" height="100" rx="8" fill="#252830" />
    <rect x="220" y="90" width="180" height="100" rx="8" fill="#252830" />
    <rect x="420" y="90" width="180" height="100" rx="8" fill="#252830" />
    <rect x="620" y="90" width="160" height="100" rx="8" fill="#252830" />
    <text x="110" y="130" font-family="system-ui" font-size="28" fill="#10b981" text-anchor="middle">
        47</text>
    <text x="110" y="160" font-family="system-ui" font-size="12" fill="#9ca3af" text-anchor="middle">Open
        Tickets</text>
    <text x="310" y="130" font-family="system-ui" font-size="28" fill="#3b82f6" text-anchor="middle">
        12</text>
    <text x="310" y="160" font-family="system-ui" font-size="12" fill="#9ca3af" text-anchor="middle">In
        Progress</text>
    <text x="510" y="130" font-family="system-ui" font-size="28" fill="#f59e0b" text-anchor="middle">
        5</text>
    <text x="510" y="160" font-family="system-ui" font-size="12" fill="#9ca3af" text-anchor="middle">
        Pending</text>
    <text x="700" y="130" font-family="system-ui" font-size="28" fill="#ef4444" text-anchor="middle">
        3</text>
    <text x="700" y="160" font-family="system-ui" font-size="12" fill="#9ca3af" text-anchor="middle">
        Urgent</text>
    <rect x="20" y="210" width="500" height="220" rx="8" fill="#252830" />
    <rect x="40" y="230" width="150" height="20" rx="4" fill="#374151" />
    <path d="M60 400 L140 340 L220 360 L300 300 L380 320 L460 280" stroke="#10b981" stroke-width="3"
        fill="none" />
    <rect x="540" y="210" width="240" height="220" rx="8" fill="#252830" />
    <rect x="560" y="230" width="100" height="16" rx="3" fill="#374151" />
    <rect x="560" y="260" width="200" height="30" rx="4" fill="#10b981" />
    <rect x="560" y="300" width="160" height="30" rx="4" fill="#3b82f6" />
    <rect x="560" y="340" width="120" height="30" rx="4" fill="#f59e0b" />
    <rect x="560" y="380" width="80" height="30" rx="4" fill="#ef4444" />
    <text x="400" y="440" font-family="system-ui" font-size="14" fill="#6b7280" text-anchor="middle">Helpdesk
        - Dashboard</text>
</svg>