<svg xmlns="http://www.w3.org/2000/svg" viewBox="0 0 800 450" fill="none">
    <rect width="800" height="450" fill="#1a1d24" />
    <rect x="20" y="20" width="760" height="50" rx="8" fill="#252830" />
    <text x="50" y="52" font-family="system-ui" font-size="18" fill="#fff">Ticket #1234</text>
    <rect x="650" y="30" width="80" height="30" rx="15" fill="#f59e0b" />
    <rect x="20" y="90" width="500" height="340" rx="8" fill="#252830" />
    <rect x="40" y="110" width="300" height="24" rx="4" fill="#374151" />
    <rect x="40" y="150" width="150" height="16" rx="3" fill="#4b5563" />
    <rect x="40" y="180" width="440" height="80" rx="4" fill="#1f2937" />
    <rect x="40" y="280" width="440" height="60" rx="4" fill="#1f2937" />
    <rect x="40" y="360" width="440" height="50" rx="4" fill="#252830" />
    <rect x="540" y="90" width="240" height="160" rx="8" fill="#252830" />
    <rect x="560" y="110" width="80" height="16" rx="3" fill="#374151" />
    <rect x="560" y="140" width="200" height="20" rx="3" fill="#4b5563" />
    <rect x="560" y="170" width="150" height="16" rx="3" fill="#4b5563" />
    <rect x="560" y="200" width="180" height="16" rx="3" fill="#4b5563" />
    <rect x="540" y="270" width="240" height="160" rx="8" fill="#252830" />
    <rect x="560" y="290" width="80" height="16" rx="3" fill="#374151" />
    <circle cx="580" cy="340" r="20" fill="#3b82f6" />
    <rect x="610" y="330" width="150" height="20" rx="3" fill="#4b5563" />
    <text x="400" y="440" font-family="system-ui" font-size="14" fill="#6b7280" text-anchor="middle">Helpdesk
        - Ticket Detail</text>
</svg>